<svg width="32" height="32" viewBox="0 0 32 32" fill="none" xmlns="http://www.w3.org/2000/svg">
    <path d="M30.4575 13.2126L24.2285 19.2846L25.6995 27.8606C25.731 28.0445 25.7105 28.2336 25.6402 28.4064C25.5698 28.5792 25.4526 28.7289 25.3016 28.8386C25.1506 28.9482 24.972 29.0135 24.7859 29.0269C24.5998 29.0404 24.4137 29.0015 24.2485 28.9146L16.5465 24.8656L8.84553 28.9136C8.68039 29.0005 8.49424 29.0394 8.30815 29.0259C8.12205 29.0125 7.94342 28.9472 7.79246 28.8376C7.64151 28.7279 7.52424 28.5782 7.45391 28.4054C7.38359 28.2326 7.36302 28.0435 7.39453 27.8596L8.86553 19.2836L2.63553 13.2126C2.50181 13.0823 2.40723 12.9172 2.3625 12.736C2.31777 12.5547 2.32467 12.3646 2.38243 12.187C2.44019 12.0095 2.54649 11.8517 2.68931 11.7314C2.83213 11.6112 3.00575 11.5333 3.19053 11.5066L11.7995 10.2566L15.6495 2.45463C15.9865 1.77163 17.1065 1.77163 17.4435 2.45463L21.2935 10.2566L29.9025 11.5066C30.0869 11.534 30.26 11.6122 30.4023 11.7326C30.5446 11.8529 30.6506 12.0106 30.7083 12.1878C30.7659 12.365 30.773 12.5548 30.7287 12.7359C30.6844 12.9169 30.5905 13.082 30.4575 13.2126Z" fill="#F3B209"/>
    <path d="M8.84553 28.9136L17.4435 24.8656V2.45463C17.1065 1.77163 15.9865 1.77163 15.6495 2.45463L11.7995 10.2566L3.19053 11.5066C3.00575 11.5333 2.83213 11.6112 2.68931 11.7314C2.54649 11.8517 2.44019 12.0095 2.38243 12.187C2.32467 12.3646 2.31777 12.5547 2.3625 12.736C2.40723 12.9172 2.50181 13.0823 2.63553 13.2126L8.86554 19.2836L7.39454 27.8596C7.36303 28.0435 7.38359 28.2326 7.45392 28.4054C7.52424 28.5782 7.64151 28.7279 7.79246 28.8376C7.94342 28.9472 8.12205 29.0125 8.30815 29.0259C8.49424 29.0394 8.68039 29.0005 8.84553 28.9136Z" fill="#F3B209"/>
</svg>
